<svg xmlns="http://www.w3.org/2000/svg" width="362" height="432" viewBox="0 0 362 432"><path fill="#020202" fill-rule="evenodd" stroke="#020202" stroke-linejoin="round" stroke-width=".25" d="m84.43.06 277.48.03.03 189.43c-.4.02-.8.05-1.2.08v4.79c.4.03.8.06 1.2.1v8.37c-1.24.18-2.49.35-3.73.53-.12 1.95 1.45 2.25 1.7 4.32.59 5.02-.44 10.02.47 15.04.52.08 1.04.17 1.56.25v65.79c-2.52.35-6.49-.6-7.82 1.93-2.61.1-5.21.2-7.82.31-.24-.71-.48-1.42-.72-2.12-3.06-.39-4.47.99-6.86 1.47-3.06-.57-6.44-1.73-10.1-1.25-1.42.19-2.01.74-2.97 1.26-1.45.79-5.41.76-7.14.86-.24.51-.48 1.03-.72 1.55-1.61.31-2.96.41-3.61 1.91-1.42.57-2.1.29-2.53 1.94l-23.5.57c-.22.55-.45 1.11-.68 1.66l-13.35.45c-1.01 2.45-10.68 1.73-13.72 2.19-.16 1.88-2.23 3.36-3.97 3.34-.24-.58-.48-1.16-.72-1.75-1.46-.26-1.74-.4-2.17-1.83l-5.09-.09c-.63 1.37-1.12 1.53-1.94 2.55-.7.88-.48 2.65-.91 3.7-2.18.23-3.26-.54-4.33-2.09-1.11 1.14-2.23 2.28-3.34 3.41-1.68.3-8.07.95-8.57-1.09h-2.88c-.18 1.28-.76 1.58-1.97 1.82-.16 1.42-.46 3.19-2 3.28-.69-.73-1.38-1.47-2.06-2.2l-.66-3.25-3.78-.06c-.84 1.16-1.69 2.32-2.53 3.48-.96-.04-1.92-.08-2.88-.13-.45-1.3-.76-1.4-2.17-1.42-.24 1.2-.48 2.41-.72 3.62-6.5.18-13 .37-19.49.55-.76 2.06-3.79 1.73-5.87 1.9-.26.48-.53.96-.8 1.44-1.59.16-4.93-.01-5.24 1.82-3.97.25-7.94.49-11.91.74-2.15 1.19-4.3 2.39-6.45 3.58-1.65.34-2.94.28-3.66 1.82-1.2.23-2.4.46-3.61.69-.36.48-.72.97-1.08 1.45-2.89.15-5.72.67-7.58-1.53-1.2-.15-2.41-.29-3.61-.43-.24 1.26-.47 2.52-.71 3.78-.73.71-1.45 1.42-2.18 2.14-.96-.09-1.92-.18-2.88-.28-.6-2.62-6.54-1.49-8.64-1.14-.89 1.93-3.77 1.68-5.8 1.99l-.72 1.5c-1.08.15-2.17.29-3.25.43-.24.54-.48 1.07-.72 1.61l-7.55-.12c-1.3-2.47-5.11-1.67-7.61-1.48-1.14 1.51-1.88 1.82-3.97 2.09-.33 1.48-.71 1.54-2.17 1.83-.67 2.03-2.32 1.41-2.88 3.41-1.74.29-2.96.48-3.65 2.09h-7.54c-.66-.6-1.31-1.2-1.96-1.8-.07-1.81-.13-3.61-.2-5.42 2.53-.25 5.05-.51 7.57-.76.49-1.38.78-1.44 2.17-1.8.38-1.63.16-3.41 1.88-3.93.31-2.53.61-5.06.92-7.58 1.4-.3 1.31-.9 1.65-2.17 1.46-.48 1.54-.59 2.04-2.03 2.43-.55 4.68.24 6.07-1.94l3.32-.63c.33-1.87.98-2.57 2.22-3.7.22-1.08.43-2.17.65-3.25 1.65-.29 1.43-1.4 1.82-2.79 1.54-.68 1.64-2.1 2.08-3.7 1.62-.28 1.32-.73 2.32-1.6 1.07-.93 3.67-.71 4.98-.93l.6-3.61c1.12-1.21 2.25-2.42 3.37-3.63 1.33-.22 2.65-.44 3.97-.66 1.51-1.81 3.24-1.87 5.78-2.1.42-1.44.79-2.9 2.23-3.35.29-1.93.59-3.85.89-5.78 1.6-.33 3.21-.67 4.82-1l2.19-2.25c.25-.96.5-1.92.76-2.89.52-.24 1.05-.48 1.57-.72.83-1.8 1.65-3.61 2.48-5.41 1.53-.4 1.38-.85 1.97-2.17 1.22-.23 1.92-.17 2.22-1.5 1.68-.58 3.35-1.16 5.03-1.74-.51-1.71-1.09-2.24-1.1-4.34l3.4-.72 3.86-3.62c.22-.72.44-1.44.66-2.15l5.38-.36c.25-1.55-.3-3.14-.1-4.69.11-.87.76-1.45.91-2.35 1.69-.33 3.37-.67 5.06-1 .58-2.11 2.31-1.16 3.6-2.55.89-.97.7-2.69 1.45-3.83 2.38.11 4.75.23 7.13.34l.45-5.26c1.2-.77 2.41-1.54 3.61-2.32l.36-5.64c1.81-.68 3.46-2.23 4.05-4.1 1.44-.3 1.79-.42 2.08-1.89 1.86-.21 3.72-.43 5.57-.64.15-.6.31-1.2.46-1.8.52-.55 1.03-1.1 1.55-1.64.6-.16 1.21-.33 1.81-.49l.72-1.68c.96-.16 1.92-.33 2.89-.49.44-1.43.86-1.57 2.32-1.84.17-.6.35-1.2.52-1.8 1.15-.5 4.1-7.76 4.38-9.45 1.74-.25 3.2-.38 3.6-2.2 3.7-.79 6-4.03 6.18-7.84 1.4-.44 1.46-.79 1.76-2.19.61-.16 1.21-.32 1.81-.49.24-.49.48-.99.72-1.48 2.41-.28 4.81-.56 7.22-.83.64-.51 1.27-1.01 1.91-1.51.54-1.37.4-1.78 1.95-2.17.45-1.45.41-1.78 1.97-2.16.27-1.79.87-2.61 2.11-3.66l.36-1.92 1.55-1.64 4.44-.72c.7-1.08 1.4-2.17 2.1-3.25l1.62-.72c.13-.59.27-1.18.4-1.76 1.39-.48 1.97-1.79 2.16-3.3l5.06-1.08c.28-1.8.55-3.61.83-5.41.68-.68 1.37-1.35 2.05-2.03l9.39-.39c.56-1.33.62-1.47 2.05-1.91.49-1.53.17-3.55 1.68-4.33.2-1.81.41-3.61.62-5.42 1.33-.79 3.47-2.38 3.95-3.89.6-.17 1.2-.33 1.8-.49.4-1.4 3.76-4.04 5.43-4.28.31-1.08.62-2.16.93-3.25 1.13-.15 2.26-.31 3.39-.46.43-1.36.52-1.74 1.99-2.06.46-1.79.25-3.36 2.09-3.97.17-1.09.33-2.17.49-3.25.53-.24 1.07-.48 1.6-.72.82-1.21 1.65-2.41 2.47-3.61 1.81-.15 3.62-.29 5.43-.44 1.1-1.3 2.13-1.64 3.97-1.88.49-1.63.74-1.61 2.17-2.34.2-.97.41-1.95.61-2.92.5-.24.99-.48 1.49-.72.12-.61.23-1.21.35-1.81 2.18-.96 1.21-3.5 3.5-4.33.76-1.2 1.53-2.41 2.29-3.61 1.53-.56 1.36-.66 2.22-1.9l3.25-.39c.84-1.23 1.69-2.45 2.53-3.67 1.33-.51 1.74-.32 2.16-1.79 1.23-.19 2.46-.37 3.68-.55 1.03-1.48 2.11-1.65 3.9-2.16l.36-7.4c.75-.67 1.5-1.33 2.25-1.99.94.42 1.87.84 2.81 1.26.84-.46 1.68-.92 2.52-1.39.2-1.16.39-2.32.58-3.48 1.13-.86 2.26-1.71 3.39-2.57l.51-1.76 3.82-2.5c.68-4.65-2.3-6.67-6.04-7.97l-1.74-1.8c-.17-.55-.34-1.11-.52-1.66l-1.53-.51c-.21-.58-.42-1.17-.63-1.75-1.44-.16-1.51-.6-1.95-1.85-1.41-.27-1.71-.5-2.02-1.9-7.75-.9-10.36-3.47-19.49-2.17-1.2 1.39-2 1.74-3.97 2.13-.5 1.79-3.12 2.05-4.33 3.54l-1.81.36c-.66 1.73-2.02 1.76-3.87 2.01-2.91 2.67-11.46.39-12.01 3.31-2.92.68-8.22-.71-9.86 2.1l-3.8.72c-.41 1.57-.9 1.51-2.42 1.81-.91 1.47-1.95 1.79-3.77 2.02-.24.53-.48 1.06-.71 1.58-1.67.11-3.15.26-3.62 1.89-6.27 1.3-12.17 2.87-18.77 3.09-1.7.06-3.29-.74-5.05-.44l-.48 3.4c-1.23.42-1.45.62-1.68 1.93-1.35.6-1.61 1.03-2.61 1.79-1.88 1.42-4.84-.49-5.7 2.2-3.83.47-7.42.31-11.33.58-.31.49-.63.98-.94 1.47-2.28.22-4.57.44-6.85.67-.36 1.42-.67 1.87-2.14 2.19-.37 1-.74 2.01-1.11 3.01l-2.81.24c-.39-.5-.78-1-1.16-1.5-.99.62-1.98 1.24-2.96 1.86-.22.6-.44 1.2-.65 1.8h-3.25c-.36-1.28-.72-2.57-1.08-3.86-.97.15-1.93.31-2.89.47l-.72 5.36c-1.33.47-1.63.41-2.17 1.74-1.8.01-3.61.01-5.41.02-2.72-2.11-6.28-1.5-9.75-1.25-.25 1.42-.85 1.48-2.16 1.76-.24 1-.48 1.99-.72 2.98-1.25 1.01-1.34 1.1-1.81 2.77-1.45.43-1.45.69-2.16 1.91-1.69.14-3.06.31-3.77 1.82-1.87.21-3.75.42-5.62.62-1.34 1.75-3.4 1.76-5.77 1.95-.48 1.38-.71 1.51-2.17 1.78-.21.6-.43 1.19-.65 1.79-2.68.34-2.89-.48-4.76-1.26-.85.54-1.69 1.08-2.53 1.62l-.72 1.8c-.96.23-1.92.45-2.89.68-1.51-1.25-2.55-.62-4.33-.45-.24.47-.48.93-.72 1.39-1.14.18-2.28.37-3.42.55-.8 1.2-1.59 2.4-2.38 3.61-2.21.64-5.41-.43-6.47 1.85-2.35.17-6.35-.14-7.39 2.12-1.15.19-2.29.39-3.44.59-.24.49-.48.99-.72 1.49-1.08.18-2.17.37-3.25.55-.75 1.96-2.47 1.16-2.89 3.29l-3.24.72c-.37 1.47-.69 1.66-2.17 1.93-.84 1.16-1.68 2.33-2.53 3.49l-5.41-.06c-.17-.52-.35-1.03-.52-1.54-1.15-.12-2.3-.23-3.45-.35-.84 1.37-1.68 2.74-2.53 4.11-5.65 1.97-7.57 1.61-13.71 2.37-1.49 2.07-4.98 1.92-7.58 2.16-.28 2.02-2.66 1.57-4.3 1.82-.17.48-.33.96-.5 1.44-1.16.16-2.33.31-3.5.47l-.72 1.47c-1.09.18-2.17.35-3.25.52-.24.51-.48 1.01-.72 1.52-1.93.24-3.85.48-5.77.71l-3.98 3.41c-1.92.31-2.8.61-3.97 1.98-1.2.01-2.4.01-3.61.02-.24-.52-.48-1.04-.72-1.55l-3.25.06-.39 3.3c-1.28.7-1.62.67-2.11 2.17l-15.77.36c-1.25.72-2.49 1.44-3.74 2.16v11.21c1.15.24 2.31.47 3.47.71.16 1.85.33 3.7.5 5.55.72.64 1.44 1.29 2.16 1.94 2.85.18 6.15.65 7.94-1.42 1.69 0 3.37 0 5.05-.01l3.61 3.55c1.06-.45.46-.7 1.09-1.5 1.35-1.71 4.15.71 5.05 1.07.84-.55 1.68-1.09 2.53-1.64l.72-3.8 2.52-1.65c1.64.68 2.11 2.55 4.75 1.88.23-.65.45-1.29.67-1.93l7.58-.48c.83-1.24 1.66-2.49 2.5-3.73 1.08-.06 4.78 2.71 5.8 3.63 1.08-.02 2.16-.05 3.25-.08.8-3.37 1.66-4.72 2.8-7.52 1.38-.34 1.55-.43 1.93-1.8 1.6-.33 4.17.11 4.65-1.81 6.86-.28 13.72-.55 20.57-.82.53-1.47.84-1.72 2.38-2.07.21-1.45.62-1.65 1.93-2.16.25-1.08.5-2.15.75-3.22l5.41-.42c1.2-.67 2.41-1.35 3.61-2.02.56-1.33.56-1.91 2.12-2.28.25-1.17.51-2.33.77-3.49 3.73-.12 7.45-.23 11.18-.34.24-.47.49-.93.73-1.4 1.2-.17 2.4-.35 3.61-.53 1.23-1.76 2.27-1.44 4.33-2.09 1.51-3.69 8.89-.56 11.91-1.87.71-1.21 1.43-2.42 2.15-3.64 1.67-.26 2.95-.36 3.62-1.87 1.32-.2 2.65-.39 3.97-.58.93-3.46 4.72-1.23 7.22-1.33.85-.04 1.58-.68 2.4-.91.24-1.08.47-2.16.7-3.25 1.47-.51 1.52-.7 2.31-1.93 3.73-.2 7.46-.39 11.18-.59.44-1.52.71-1.48 2.18-1.89.24-.52.48-1.03.72-1.55.96-.15 1.92-.29 2.89-.44.24-.53.48-1.07.72-1.6 1.57-.25 3.13-.23 3.61-1.82 2.02-.51 3.18-.48 4.33-2.16 1.2-.16 2.4-.32 3.61-.49l.72-1.41c4.45-.9 8.9-1.79 13.35-2.69.36-1.47.76-1.43 2.15-1.83.24-.5.49-.99.74-1.49 1.18-.23 2.37-.45 3.55-.68 1.36-3.07 5.19-.75 6.92-.07 3.28-.68 1.24-5.28 4.33-5.48 1.82 2.18 2.96 2.36 6.15 1.94l4.32-5.85c1.3-.63 1.68-.44 2.16-1.9 2.3-.58 2.9-.39 4.33-2.07 1.81-.09 7.23.23 7.6-1.73 3.46-.32 8.32.31 10.45-2.22 2.49-.13 4.19-.36 5.77-2.02 5.14-.37 15.32-.46 18.41-3.97 1.47.5 1.36 2.01 1.21 3.52-1.09 1.09-2.14 1.83-2.42 3.61-1.72.37-2.55 1.19-3.48 2.44l-1.81.39c-.24.48-.48.97-.72 1.45-1.98.25-3.96.51-5.95.77.09 3.01.18 6.02.28 9.03-1.27 1.01-1.34.93-2.01 2.52-1.36.4-1.33.64-1.95 1.81-1.42.31-1.97.27-2.28 1.81l-3.61.63c-1.29 1.32-4 1.47-4.33 3.34-1.68.32-3.37.65-5.05.97-.29 1.41-.89 1.63-2.23 1.91-.2.96-.41 1.92-.62 2.89l-1.53.72c-.13.6-.27 1.2-.4 1.8l-1.5.72c-.19 1.16-.39 2.32-.58 3.48-.6.62-1.2 1.25-1.8 1.88-2.41.12-4.82.25-7.22.38-.7 1.52-1.14 1.39-2.53 2.15-.16 1.1-.33 2.2-.49 3.3-.48.24-.95.48-1.43.72-.19 1.09-.39 2.17-.58 3.25-1.55.27-1.7.56-2.19 1.97-1.73.19-3.46.37-5.19.56-.31 1.64-.33 3.27-1.91 3.97-.24 1.92-.47 3.85-.71 5.77-.64.72-1.29 1.44-1.94 2.16l-5.41-.03-2.42 3.65c-.57.24-1.15.48-1.73.72-.15.96-.31 1.93-.47 2.89-.5.21-1.01.41-1.52.62-.16.63-.33 1.27-.5 1.9-1.07.85-2.13 1.69-3.2 2.53-.21 1.73-.66 3.08-2.28 3.61l-.51 1.65c-1.45.24-1.59.59-1.96 1.96-1.55.28-2.97.36-3.46 1.91-1.3.32-2.61.65-3.92.98-.12 1.25-.55 1.71-1.85 1.8-.29 1.49-.73 1.76-2.17 2.11-.13 1.31-.48 1.79-1.8 1.87-.33 1.08-.67 2.16-1 3.24-1.36.21-3.57 2.65-3.7 3.97-1.48.47-1.77.6-2.12 2.16-1.54.37-3.6 2.38-3.95 3.97-1.83.13-3.67.25-5.5.37-.63.6-1.27 1.2-1.9 1.8-.23 1.32-.45 2.65-.67 3.97-.58.67-1.16 1.34-1.73 2.01-2.52.59-3.37 2.07-5.63 2.68-.24.96-.47 1.93-.71 2.89l-1.47.72c-.11.6-.23 1.2-.35 1.81-1.37.89-1.9 1.81-2.04 3.61-1.42.48-1.69.65-2.07 2.16-1.32.25-2.02.34-2.17 1.81-1.68.3-3.37.59-5.05.89-.35 1.62-.7 3.25-1.04 4.88-1.31.29-1.57.9-1.68 2.17-1.37.49-1.8.6-2.03 2.16-1.55.47-1.56.78-2.11 2.21-1.48.22-1.66.5-2.17 1.81-1.19.23-2.38.45-3.58.67l-1.83 1.74c-.54 1.23-.49 1.41-1.8 1.88-.18.6-.35 1.2-.52 1.8-1.49.37-1.54.73-1.9 2.16l-3.4 2.53c-.84 1.08-1.68 2.16-2.52 3.25-1.91.19-3.82.39-5.74.59l-.36 7.4c-1.45.43-1.59.68-1.98 2.11l-5.26.36c-.84 1.19-.64 1.71-2.21 2.17-.36 2.72-1.92 3.13-2.57 5.41l-1.7.42c-.76 1.54-1.77 2.05-3.6 2.22-.39 1.42-.75 1.55-2.17 1.81-.22.56-.44 1.13-.67 1.69l-3.3.12-.72-7.91-3.25-.03c-.22 2.61-.45 5.21-.67 7.82-2.15.81-1.87 3.99-1.5 6.07.52.26 1.04.52 1.56.79-.04.94-.08 1.87-.11 2.81-1.09.27-2.17.53-3.25.79-.37 1.52-.73 1.56-2.17 1.93-.84 1.15-1.68 2.29-2.52 3.43-1.44.33-1.89.43-2.17 1.95-1.12.81-2.24 1.63-3.36 2.44-.52 1.57-.54 1.56-2.06 2.17-.33 1.34-.45 1.5-1.8 1.8-.2.6-.39 1.2-.59 1.8-1.13.85-2.27 1.69-3.4 2.53-.22 1.47-.48 1.84-1.93 2.17-.22.96-.45 1.92-.68 2.88-1.37.49-1.81.63-2.03 2.17-1.5.4-1.57.73-2 2.16-1.48.31-1.61.6-2 2.01-1.47.23-1.55.58-1.91 1.96-.57.18-1.13.36-1.7.54-.33 1.51-.61 1.5-2 1.99-.17 1.2-.35 2.39-.52 3.59-.48.65-.97 1.29-1.45 1.94-.72.2-1.44.39-2.16.59-.41 1.75-3.33 2.97-4.04 5.43-1.18.79-2.36 1.59-3.54 2.38-.23.53-.47 1.06-.7 1.59-1.76.19-3 .38-3.63 1.98-.72.17-1.45.35-2.17.52-.6 1.45-2.03 1.77-3.61 2.06-.36 1.47-.68 1.49-2.07 1.94-.33 1.51-.49 1.64-1.9 2.16-.2 1.81-.39 3.61-.58 5.42-1.19.43-1.36.55-1.68 1.8-1.29.23-2.58.47-3.87.7-.47 1.54-2.04 1.95-3.61 2.16-.18 1.52-2.73 3.68-4.15 4-.79 1.12-1.57 2.24-2.35 3.36-.55.2-1.11.41-1.66.61-.77 1.08-1.54 2.16-2.31 3.25l-1.8.51c-.24.49-.48.98-.73 1.47-.66.3-1.33.6-1.99.9.29 1.79.94 2.67 2.2 3.61.36 3.73-1.14 8.17.82 11.55.98 0 1.96-.01 2.94-.02.25-.49.49-.98.73-1.48 2.52-.19 5.05-.39 7.58-.58 1.09-2.65 5.45-1.4 7.94-1.85l.36-3.54c1.9-.03 3.8-.07 5.7-.11.26.52.53 1.03.79 1.54 3.99.46 7.17.9 11.19-.07.27-1.51.66-1.36 1.45-2.32.99-1.19.76-3.72 1.08-5.17 1.56-.55 3.13-1.1 4.69-1.65 2.89.62 5.77 1.24 8.66 1.85.53 1.85 2.23 1.64 3.97 1.5l.69-3.62c1.6-.31 2.92-.44 3.64-1.89 1.33 0 2.65 0 3.97-.01 2.03 1.84 4.77 1.49 7.58 1.44.36-1.07.72-2.15 1.09-3.23 1.47-.27 2.76-.87 4.33-.99 2.99-.22 6.07 1.04 9.02.15.74-2.71.16-7.56 3.61-7.59.75 1.11.37 2 1.92 2.38.32 1.1.64 2.2.97 3.3 1.68-.67 3.36-1.34 5.05-2.01l.72-1.65c1.8-.14 3.61-.27 5.41-.41.36-.46.73-.92 1.09-1.37 1.68-.23 3.37-.45 5.05-.67.66-1.87 2.13-1.6 3.97-1.99l.72-1.56c1.78-.08 4.97.03 5.78-1.67 4.13-.34 13.4 1.12 15.88-2.15 7.7-.86 15.4-4.28 22.73-.75.85-.62 1.69-1.24 2.53-1.86l.72-1.65c1.56-.5 3.13-.99 4.69-1.49.97.3 1.93.61 2.89.91 1.51-1.21 3.83-1.26 5.95-1.58.28-.61.56-1.21.84-1.81 1.95.12 3.89.23 5.84.35.89 2.8 8.71 1.45 11.19 1.38.54-1.45 2.49-3.51 3.97-3.61.24.52.48 1.05.72 1.57 3.24-.01 6.47-.03 9.71-.05.89-2.02 3.35-1.91 5.45-2.08.24-.45.48-.89.72-1.33 2.53-.18 5.06-.36 7.58-.55.24-1.1.49-2.2.73-3.3l3.24-.09c.37.36.73.72 1.09 1.07.84.01 1.68.01 2.52.02 2.6-2.38 8.65.06 10.6-3.12l6.32-.72c1.08-2.24 5.4-1.5 7.63-1.1.28 2.24 6.26 2.23 6.5.01 1.2-.13 2.4-.27 3.6-.41.2-.58.39-1.17.59-1.75 5.09-1.07 8.79-2.2 14.21-2.4 2.51-.1 6.54.3 8.3-1.23 2.38 1.66 7.6 2.2 9.74-.3 2.67-.1 4.42.72 6.5 1.07 3.17-.68 6.73-1.55 10.47-1.83 1.45-1.69 5.03-2.51 6.31-.01 1.19.13 2.39.25 3.58.37.25-.61.51-1.21.76-1.81 3.67-.2 7.33-.41 11-.61.49-1.46.88-1.58 2.39-1.92.17-.59.33-1.18.5-1.78.6-.51 1.2-1.01 1.8-1.52l5.9-.81v120.56c-.52.07-1.04.14-1.56.2-.39 1.46-.79 1.61-2.15 2.1-.05.16-.1.32-.14.48h-18.13c-1.97-.4-3.94-.8-5.91-1.21-2.29-1.88-4.87-1.57-7.96-2.01-.24-.45-.48-.89-.72-1.34-1.69.02-3.37.03-5.06.05-.16 1.5-.33 3.01-.5 4.51h-83.46c-.28-.5-.57-1.01-.85-1.51l-1.93 1.51h-67.24c-.84-1.6-4.51-.98-6.15-1.21-.67-.6-1.35-1.2-2.02-1.8-.21-1.08-.41-2.17-.62-3.25l-3.61-.39c.06 2.22.13 4.43.19 6.65h-3.99c-.07-.88-.15-1.77-.23-2.65h-5.89c-1.33 2.21-4.94 1.74-7.4 1.74-.17.3-.34.61-.51.91h-28.6c-.53-.93-1.05-1.86-1.57-2.8l-9.82.15c.09.88.17 1.77.26 2.65H67.9c-.09-.76-.18-1.53-.28-2.29-1.06-.1-2.13-.21-3.2-.32-.19.87-.37 1.74-.56 2.61l-63.77-.03L.06 18.79c5.86.34 9.8-1.41 15.28-2.26.72-1.6 1.45-3.2 2.17-4.8-1.23-.49-1.18-1.15-1.09-2.38 1.08-.18 2.17-.36 3.25-.55 1.2-1.18 2.08-1.74 3.97-1.94.24-.54.47-1.08.71-1.63 1.68-.22 3.03-.36 3.62-1.91 1.2-.03 2.41-.06 3.61-.08.52 1.38.65 1.57 2.17 1.87.24.61.48 1.21.72 1.82 1.07-.09 2.14-.17 3.22-.25.99-2.55 4.22-.55 4.72-3.28 3.13-.09 6.25-.18 9.38-.28l.72 1.59c1.09.09 2.17.18 3.25.28.43-.42.5-1.26.89-1.54 1.97-1.4 6.67.52 7.77-1.89l11.19-.39c.24.55.48 1.11.72 1.67 2.76.27 4.11.23 5.78-1.73.77-.35 1.55-.7 2.32-1.05Zm109.83 3.01h-6.63c-.34.96-.68 1.92-1.02 2.89 1.9 1.6 5.22 1.05 7.65.72zm159.62 4.24h-3.53v3.58h3.53zM31.4 11.29h-3.19v3.22c1.84.64 2.51 2.53 1.79 4.44-.74.6-1.47 1.2-2.21 1.8-1.84.36-3.68.72-5.52 1.09 1 2.72 9.39 1.55 11.84.86l3.81-3.75v-5.68c-2.59-.57-4.66-.34-6.52-1.98Zm291.44 3.19c-.4.64-.81 1.29-1.21 1.94.92.99 1.81.96 2.75 0-.51-.65-1.03-1.3-1.54-1.94Zm-103.1 4.35h-3.67v2.29h3.67zm-91.07 12.55c-.24 1.09-.48 2.17-.72 3.25 1.57.9 1.54.76 2.38 2.4h3.47v-3.72c-.75-.64-1.5-1.28-2.25-1.93zm-5.05 6.7c-1.35-2.06-5.08-1.07-7.22-.87-.55 1.51-.71 1.6-2.17 2.22-.19 2.04-1.58 6.12.72 7.18.96-.6 1.93-1.21 2.89-1.82.39-1.47.52-1.58 1.96-2.02.3-1.46.49-1.73 1.91-2.17.17-1.81 1.04-1.49 1.91-2.52Zm-74.35 9.33c-2.3-.29-6.14-1.8-7.86.05.33 1.01.66 2.01 1 3.02 1.66.26 3.88.2 4.33 2.05 1.06.24 2.13.47 3.2.71 1.31 2.64 5.81.59 6.54 3.3 3.32.19 7.09 1.04 9.36-1.5v-3.32c-3.84-.31-7.68-.63-11.52-.94-1.37-1.64-2.12-1.52-4.33-2.03-.24-.44-.48-.89-.72-1.34ZM75.9 85.06c-2.24-.22-8.44-1.23-9.61 1.02 1.78 1.32 3.56 2.65 5.34 3.97-1.2.87-2.4 1.74-3.6 2.62l-5.97.63v5.77c.55.6 1.09 1.2 1.64 1.79h2.05c.82-1.29.82-1.33 2.28-1.97.81-1.46 1.86-2.01 3.61-2.29.25-1.45.68-1.57 2.06-1.86.46-1.54.54-1.86 2.2-2.16zm6.57 5.48c-2.23 2.83.7 7.88 1.64 10.37h3.64v-5.45c-1.52-.23-1.63-.71-1.82-2.16-1.15-.92-2.31-1.84-3.46-2.76Zm39.24 112.49h-3.69v7.68h3.69zM15.34 215.22h-5.12v3.32c1.32 1.02 1.55.66 1.84 2.62h5.86c.56-1.63.18-2.33-1.54-2.62-.35-1.11-.69-2.22-1.04-3.32Zm307.86 20h-6.86l-.72 1.5-5.05.78c-.48 2.04-1.18 3.13-.64 5.37h3.53c.27-.53.54-1.06.82-1.6 2.49-.61 4.98-1.22 7.48-1.83.28 1.42.82 1.38 2.16 1.22l.63-3c-.45-.81-.9-1.63-1.35-2.44Zm-89.52 44.01h-3.57v5.5h3.57zM126 389.19h-3.72v7.57H126zm74.26 5.91h-4.32v3.82h4.32zm141.35.52c-2.76-.28-4.27 1.47-6.9 1.93.61.98 1.23 1.95 1.85 2.93 1.03-.19.75-.78 1.63-1.09 1.64-.6 4.79.41 5.25-1.84-.61-.64-1.22-1.29-1.83-1.93Zm-133.48 1.55h-2.49v3.66h2.49zm31.85-.22h-4.24v4.14h4.24zm-84.25 10.28h-3.6c-.24.57-.48 1.14-.73 1.71h-3.24c-1.33.78-2.65 1.56-3.97 2.33-.46 1.42-.68 1.6-2.17 1.8v5.89h5.94v3.87h2.72c-.3-3.32-.77-6.12-.19-9.4l3.21-.72c.32-1.47.57-1.77 2.03-2.17zm-29.81 5.94h-5.88v3.86h5.88zm65.55 1.39c-1 .34-1.99.69-2.98 1.04.87 1.01 1.74 2.02 2.62 3.03 1.01-1.02 1.31-2.79.36-4.07Zm-17.27 1.82v3.14c1.2-.26 2.4-.53 3.6-.79v-1.46c-1.2-.3-2.4-.59-3.6-.89Zm39.8.94v5.4h3.61v-5.4zm-206.24 1.8H2.09v5.86c3.67.8 3.2-.53 5.67-2.17zm126.68-.1-.72 1.86c-1.49.29-3.74 2.26-3.95 3.74-1.28.48-2.55.96-3.82 1.44 1.12 1.82 6.66.83 8.84 1.45v2.9c.49-2.29.97-4.59 1.46-6.89.56-.23 1.12-.47 1.68-.71v-3.79zM184 421.1l-3.39.63c-.02 2.48.32 5.65 3.39 5.42zm-105.92 1.76h-5.89c-.28 1.42-.25 3.3 1.26 3.69 1.54-.65 3.08-1.29 4.63-1.93z"/><path fill="#fbfbfb" fill-rule="evenodd" stroke="#fbfbfb" stroke-linejoin="round" stroke-width=".25" d="M.09.09 84.43.06c-.77.35-1.55.7-2.32 1.05-1.67 1.96-3.02 2-5.78 1.73-.24-.56-.48-1.12-.72-1.67l-11.19.39c-1.1 2.41-5.8.49-7.77 1.89-.39.28-.46 1.12-.89 1.54-1.08-.1-2.16-.19-3.25-.28l-.72-1.59c-3.13.1-6.25.19-9.38.28-.5 2.73-3.73.73-4.72 3.28-1.08.08-2.15.16-3.22.25-.24-.61-.48-1.21-.72-1.82-1.52-.3-1.65-.49-2.17-1.87-1.2.02-2.41.05-3.61.08-.59 1.55-1.94 1.69-3.62 1.91-.24.55-.47 1.09-.71 1.63-1.89.2-2.77.76-3.97 1.94-1.08.19-2.17.37-3.25.55-.09 1.23-.14 1.89 1.09 2.38-.72 1.6-1.45 3.2-2.17 4.8-5.48.85-9.42 2.6-15.28 2.26zm194.17 2.98v3.61c-2.43.33-5.75.88-7.65-.72.34-.97.68-1.93 1.02-2.89zm159.62 4.24v3.58h-3.53V7.31zM31.4 11.29c1.86 1.64 3.93 1.41 6.52 1.98v5.68l-3.81 3.75c-2.45.69-10.84 1.86-11.84-.86 1.84-.37 3.68-.73 5.52-1.09.74-.6 1.47-1.2 2.21-1.8.72-1.91.05-3.8-1.79-4.44v-3.22zm291.44 3.19c.51.64 1.03 1.29 1.54 1.94-.94.96-1.83.99-2.75 0 .4-.65.81-1.3 1.21-1.94Zm-103.1 4.35v2.29h-3.67v-2.29zm-91.07 12.55h2.88c.75.65 1.5 1.29 2.25 1.93v3.72h-3.47c-.84-1.64-.81-1.5-2.38-2.4.24-1.08.48-2.16.72-3.25Zm-5.05 6.7c-.87 1.03-1.74.71-1.91 2.52-1.42.44-1.61.71-1.91 2.17-1.44.44-1.57.55-1.96 2.02-.96.61-1.93 1.22-2.89 1.82-2.3-1.06-.91-5.14-.72-7.18 1.46-.62 1.62-.71 2.17-2.22 2.14-.2 5.87-1.19 7.22.87Zm238.32 250.71v19.83l-5.9.81c-.6.51-1.2 1.01-1.8 1.52-.17.6-.33 1.19-.5 1.78-1.51.34-1.9.46-2.39 1.92-3.67.2-7.33.41-11 .61-.25.6-.51 1.2-.76 1.81-1.19-.12-2.39-.24-3.58-.37-1.28-2.5-4.86-1.68-6.31.01-3.74.28-7.3 1.15-10.47 1.83-2.08-.35-3.83-1.17-6.5-1.07-2.14 2.5-7.36 1.96-9.74.3-1.76 1.53-5.79 1.13-8.3 1.23-5.42.2-9.12 1.33-14.21 2.4-.2.58-.39 1.17-.59 1.75-1.2.14-2.4.28-3.6.41-.24 2.22-6.22 2.23-6.5-.01-2.23-.4-6.55-1.14-7.63 1.1l-6.32.72c-1.95 3.18-8 .74-10.6 3.12-.84-.01-1.68-.01-2.52-.02-.36-.35-.72-.71-1.09-1.07l-3.24.09c-.24 1.1-.49 2.2-.73 3.3-2.52.19-5.05.37-7.58.55-.24.44-.48.88-.72 1.33-2.1.17-4.56.06-5.45 2.08-3.24.02-6.47.04-9.71.05-.24-.52-.48-1.05-.72-1.57-1.48.1-3.43 2.16-3.97 3.61-2.48.07-10.3 1.42-11.19-1.38-1.95-.12-3.89-.23-5.84-.35-.28.6-.56 1.2-.84 1.81-2.12.32-4.44.37-5.95 1.58-.96-.3-1.92-.61-2.89-.91-1.56.5-3.13.99-4.69 1.49l-.72 1.65c-.84.62-1.68 1.24-2.53 1.86-7.33-3.53-15.03-.11-22.73.75-2.48 3.27-11.75 1.81-15.88 2.15-.81 1.7-4 1.59-5.78 1.67l-.72 1.56c-1.84.39-3.31.12-3.97 1.99-1.68.22-3.37.44-5.05.67-.36.45-.73.91-1.09 1.37-1.8.14-3.61.27-5.41.41l-.72 1.65c-1.69.67-3.37 1.34-5.05 2.01-.33-1.1-.65-2.2-.97-3.3-1.55-.38-1.17-1.27-1.92-2.38-3.45.03-2.87 4.88-3.61 7.59-2.95.89-6.03-.37-9.02-.15-1.57.12-2.86.72-4.33.99-.37 1.08-.73 2.16-1.09 3.23-2.81.05-5.55.4-7.58-1.44-1.32.01-2.64.01-3.97.01-.72 1.45-2.04 1.58-3.64 1.89l-.69 3.62c-1.74.14-3.44.35-3.97-1.5-2.89-.61-5.77-1.23-8.66-1.85-1.56.55-3.13 1.1-4.69 1.65-.32 1.45-.09 3.98-1.08 5.17-.79.96-1.18.81-1.45 2.32-4.02.97-7.2.53-11.19.07-.26-.51-.53-1.02-.79-1.54-1.9.04-3.8.08-5.7.11l-.36 3.54c-2.49.45-6.85-.8-7.94 1.85-2.53.19-5.06.39-7.58.58-.24.5-.48.99-.73 1.48-.98.01-1.96.02-2.94.02-1.96-3.38-.46-7.82-.82-11.55-1.26-.94-1.91-1.82-2.2-3.61.66-.3 1.33-.6 1.99-.9.25-.49.49-.98.73-1.47l1.8-.51c.77-1.09 1.54-2.17 2.31-3.25.55-.2 1.11-.41 1.66-.61.78-1.12 1.56-2.24 2.35-3.36 1.42-.32 3.97-2.48 4.15-4 1.57-.21 3.14-.62 3.61-2.16 1.29-.23 2.58-.47 3.87-.7.32-1.25.49-1.37 1.68-1.8.19-1.81.38-3.61.58-5.42 1.41-.52 1.57-.65 1.9-2.16 1.39-.45 1.71-.47 2.07-1.94 1.58-.29 3.01-.61 3.61-2.06.72-.17 1.45-.35 2.17-.52.63-1.6 1.87-1.79 3.63-1.98.23-.53.47-1.06.7-1.59 1.18-.79 2.36-1.59 3.54-2.38.71-2.46 3.63-3.68 4.04-5.43.72-.2 1.44-.39 2.16-.59.48-.65.97-1.29 1.45-1.94.17-1.2.35-2.39.52-3.59 1.39-.49 1.67-.48 2-1.99.57-.18 1.13-.36 1.7-.54.36-1.38.44-1.73 1.91-1.96.39-1.41.52-1.7 2-2.01.43-1.43.5-1.76 2-2.16.22-1.54.66-1.68 2.03-2.17.23-.96.46-1.92.68-2.88 1.45-.33 1.71-.7 1.93-2.17 1.13-.84 2.27-1.68 3.4-2.53.2-.6.39-1.2.59-1.8 1.35-.3 1.47-.46 1.8-1.8 1.52-.61 1.54-.6 2.06-2.17 1.12-.81 2.24-1.63 3.36-2.44.28-1.52.73-1.62 2.17-1.95.84-1.14 1.68-2.28 2.52-3.43 1.44-.37 1.8-.41 2.17-1.93 1.08-.26 2.16-.52 3.25-.79.03-.94.07-1.87.11-2.81-.52-.27-1.04-.53-1.56-.79-.37-2.08-.65-5.26 1.5-6.07.22-2.61.45-5.21.67-7.82l3.25.03.72 7.91 3.3-.12c.23-.56.45-1.13.67-1.69 1.42-.26 1.78-.39 2.17-1.81 1.83-.17 2.84-.68 3.6-2.22l1.7-.42c.65-2.28 2.21-2.69 2.57-5.41 1.57-.46 1.37-.98 2.21-2.17l5.26-.36c.39-1.43.53-1.68 1.98-2.11l.36-7.4c1.92-.2 3.83-.4 5.74-.59.84-1.09 1.68-2.17 2.52-3.25l3.4-2.53c.36-1.43.41-1.79 1.9-2.16.17-.6.34-1.2.52-1.8 1.31-.47 1.26-.65 1.8-1.88l1.83-1.74c1.2-.22 2.39-.44 3.58-.67.51-1.31.69-1.59 2.17-1.81.55-1.43.56-1.74 2.11-2.21.23-1.56.66-1.67 2.03-2.16.11-1.27.37-1.88 1.68-2.17.34-1.63.69-3.26 1.04-4.88 1.68-.3 3.37-.59 5.05-.89.15-1.47.85-1.56 2.17-1.81.38-1.51.65-1.68 2.07-2.16.14-1.8.67-2.72 2.04-3.61.12-.61.24-1.21.35-1.81l1.47-.72c.24-.96.47-1.93.71-2.89 2.26-.61 3.11-2.09 5.63-2.68.57-.67 1.15-1.34 1.73-2.01.22-1.32.44-2.65.67-3.97.63-.6 1.27-1.2 1.9-1.8 1.83-.12 3.67-.24 5.5-.37.35-1.59 2.41-3.6 3.95-3.97.35-1.56.64-1.69 2.12-2.16.13-1.32 2.34-3.76 3.7-3.97.33-1.08.67-2.16 1-3.24 1.32-.08 1.67-.56 1.8-1.87 1.44-.35 1.88-.62 2.17-2.11 1.3-.09 1.73-.55 1.85-1.8 1.31-.33 2.62-.66 3.92-.98.49-1.55 1.91-1.63 3.46-1.91.37-1.37.51-1.72 1.96-1.96l.51-1.65c1.62-.53 2.07-1.88 2.28-3.61 1.07-.84 2.13-1.68 3.2-2.53.17-.63.34-1.27.5-1.9.51-.21 1.02-.41 1.52-.62.16-.96.32-1.93.47-2.89.58-.24 1.16-.48 1.73-.72l2.42-3.65 5.41.03c.65-.72 1.3-1.44 1.94-2.16.24-1.92.47-3.85.71-5.77 1.58-.7 1.6-2.33 1.91-3.97 1.73-.19 3.46-.37 5.19-.56.49-1.41.64-1.7 2.19-1.97.19-1.08.39-2.16.58-3.25.48-.24.95-.48 1.43-.72.16-1.1.33-2.2.49-3.3 1.39-.76 1.83-.63 2.53-2.15 2.4-.13 4.81-.26 7.22-.38.6-.63 1.2-1.26 1.8-1.88.19-1.16.39-2.32.58-3.48l1.5-.72c.13-.6.27-1.2.4-1.8l1.53-.72c.21-.97.42-1.93.62-2.89 1.34-.28 1.94-.5 2.23-1.91 1.68-.32 3.37-.65 5.05-.97.33-1.87 3.04-2.02 4.33-3.34l3.61-.63c.31-1.54.86-1.5 2.28-1.81.62-1.17.59-1.41 1.95-1.81.67-1.59.74-1.51 2.01-2.52-.1-3.01-.19-6.02-.28-9.03 1.99-.26 3.97-.52 5.95-.77.24-.48.48-.97.72-1.45l1.81-.39c.93-1.25 1.76-2.07 3.48-2.44.28-1.78 1.33-2.52 2.42-3.61.15-1.51.26-3.02-1.21-3.52-3.09 3.51-13.27 3.6-18.41 3.97-1.58 1.66-3.28 1.89-5.77 2.02-2.13 2.53-6.99 1.9-10.45 2.22-.37 1.96-5.79 1.64-7.6 1.73-1.43 1.68-2.03 1.49-4.33 2.07-.48 1.46-.86 1.27-2.16 1.9l-4.32 5.85c-3.19.42-4.33.24-6.15-1.94-3.09.2-1.05 4.8-4.33 5.48-1.73-.68-5.56-3-6.92.07-1.18.23-2.37.45-3.55.68-.25.5-.5.99-.74 1.49-1.39.4-1.79.36-2.15 1.83-4.45.9-8.9 1.79-13.35 2.69l-.72 1.41c-1.21.17-2.41.33-3.61.49-1.15 1.68-2.31 1.65-4.33 2.16-.48 1.59-2.04 1.57-3.61 1.82-.24.53-.48 1.07-.72 1.6-.97.15-1.93.29-2.89.44-.24.52-.48 1.03-.72 1.55-1.47.41-1.74.37-2.18 1.89-3.72.2-7.45.39-11.18.59-.79 1.23-.84 1.42-2.31 1.93-.23 1.09-.46 2.17-.7 3.25-.82.23-1.55.87-2.4.91-2.5.1-6.29-2.13-7.22 1.33-1.32.19-2.65.38-3.97.58-.67 1.51-1.95 1.61-3.62 1.87-.72 1.22-1.44 2.43-2.15 3.64-3.02 1.31-10.4-1.82-11.91 1.87-2.06.65-3.1.33-4.33 2.09-1.21.18-2.41.36-3.61.53-.24.47-.49.93-.73 1.4-3.73.11-7.45.22-11.18.34-.26 1.16-.52 2.32-.77 3.49-1.56.37-1.56.95-2.12 2.28-1.2.67-2.41 1.35-3.61 2.02l-5.41.42c-.25 1.07-.5 2.14-.75 3.22-1.31.51-1.72.71-1.93 2.16-1.54.35-1.85.6-2.38 2.07-6.85.27-13.71.54-20.57.82-.48 1.92-3.05 1.48-4.65 1.81-.38 1.37-.55 1.46-1.93 1.8-1.14 2.8-2 4.15-2.8 7.52-1.09.03-2.17.06-3.25.08-1.02-.92-4.72-3.69-5.8-3.63-.84 1.24-1.67 2.49-2.5 3.73l-7.58.48c-.22.64-.44 1.28-.67 1.93-2.64.67-3.11-1.2-4.75-1.88L46.38 175l-.72 3.8c-.85.55-1.69 1.09-2.53 1.64-.9-.36-3.7-2.78-5.05-1.07-.63.8-.03 1.05-1.09 1.5l-3.61-3.55c-1.68.01-3.36.01-5.05.01-1.79 2.07-5.09 1.6-7.94 1.42-.72-.65-1.44-1.3-2.16-1.94-.17-1.85-.34-3.7-.5-5.55-1.16-.24-2.32-.47-3.47-.71v-11.21c1.25-.72 2.49-1.44 3.74-2.16l15.77-.36c.49-1.5.83-1.47 2.11-2.17l.39-3.3 3.25-.06c.24.51.48 1.03.72 1.55 1.21-.01 2.41-.01 3.61-.02 1.17-1.37 2.05-1.67 3.97-1.98l3.98-3.41c1.92-.23 3.84-.47 5.77-.71.24-.51.48-1.01.72-1.52 1.08-.17 2.16-.34 3.25-.52l.72-1.47c1.17-.16 2.34-.31 3.5-.47.17-.48.33-.96.5-1.44 1.64-.25 4.02.2 4.3-1.82 2.6-.24 6.09-.09 7.58-2.16 6.14-.76 8.06-.4 13.71-2.37.85-1.37 1.69-2.74 2.53-4.11 1.15.12 2.3.23 3.45.35.17.51.35 1.02.52 1.54l5.41.06c.85-1.16 1.69-2.33 2.53-3.49 1.48-.27 1.8-.46 2.17-1.93l3.24-.72c.42-2.13 2.14-1.33 2.89-3.29 1.08-.18 2.17-.37 3.25-.55.24-.5.48-1 .72-1.49 1.15-.2 2.29-.4 3.44-.59 1.04-2.26 5.04-1.95 7.39-2.12 1.06-2.28 4.26-1.21 6.47-1.85.79-1.21 1.58-2.41 2.38-3.61 1.14-.18 2.28-.37 3.42-.55.24-.46.48-.92.72-1.39 1.78-.17 2.82-.8 4.33.45.97-.23 1.93-.45 2.89-.68l.72-1.8c.84-.54 1.68-1.08 2.53-1.62 1.87.78 2.08 1.6 4.76 1.26.22-.6.44-1.19.65-1.79 1.46-.27 1.69-.4 2.17-1.78 2.37-.19 4.43-.2 5.77-1.95 1.87-.2 3.75-.41 5.62-.62.71-1.51 2.08-1.68 3.77-1.82.71-1.22.71-1.48 2.16-1.91.47-1.67.56-1.76 1.81-2.77.24-.99.48-1.98.72-2.98 1.31-.28 1.91-.34 2.16-1.76 3.47-.25 7.03-.86 9.75 1.25 1.8-.01 3.61-.01 5.41-.02.54-1.33.84-1.27 2.17-1.74l.72-5.36c.96-.16 1.92-.32 2.89-.47.36 1.29.72 2.58 1.08 3.86h3.25c.21-.6.43-1.2.65-1.8.98-.62 1.97-1.24 2.96-1.86.38.5.77 1 1.16 1.5l2.81-.24c.37-1 .74-2.01 1.11-3.01 1.47-.32 1.78-.77 2.14-2.19 2.28-.23 4.57-.45 6.85-.67.31-.49.63-.98.94-1.47 3.91-.27 7.5-.11 11.33-.58.86-2.69 3.82-.78 5.7-2.2 1-.76 1.26-1.19 2.61-1.79.23-1.31.45-1.51 1.68-1.93l.48-3.4c1.76-.3 3.35.5 5.05.44 6.6-.22 12.5-1.79 18.77-3.09.47-1.63 1.95-1.78 3.62-1.89.23-.52.47-1.05.71-1.58 1.82-.23 2.86-.55 3.77-2.02 1.52-.3 2.01-.24 2.42-1.81l3.8-.72c1.64-2.81 6.94-1.42 9.86-2.1.55-2.92 9.1-.64 12.01-3.31 1.85-.25 3.21-.28 3.87-2.01l1.81-.36c1.21-1.49 3.83-1.75 4.33-3.54 1.97-.39 2.77-.74 3.97-2.13 9.13-1.3 11.74 1.27 19.49 2.17.31 1.4.61 1.63 2.02 1.9.44 1.25.51 1.69 1.95 1.85.21.58.42 1.17.63 1.75l1.53.51c.18.55.35 1.11.52 1.66l1.74 1.8c3.74 1.3 6.72 3.32 6.04 7.97l-3.82 2.5-.51 1.76c-1.13.86-2.26 1.71-3.39 2.57-.19 1.16-.38 2.32-.58 3.48-.84.47-1.68.93-2.52 1.39-.94-.42-1.87-.84-2.81-1.26-.75.66-1.5 1.32-2.25 1.99l-.36 7.4c-1.79.51-2.87.68-3.9 2.16-1.22.18-2.45.36-3.68.55-.42 1.47-.83 1.28-2.16 1.79-.84 1.22-1.69 2.44-2.53 3.67l-3.25.39c-.86 1.24-.69 1.34-2.22 1.9-.76 1.2-1.53 2.41-2.29 3.61-2.29.83-1.32 3.37-3.5 4.33-.12.6-.23 1.2-.35 1.81-.5.24-.99.48-1.49.72-.2.97-.41 1.95-.61 2.92-1.43.73-1.68.71-2.17 2.34-1.84.24-2.87.58-3.97 1.88-1.81.15-3.62.29-5.43.44-.82 1.2-1.65 2.4-2.47 3.61-.53.24-1.07.48-1.6.72-.16 1.08-.32 2.16-.49 3.25-1.84.61-1.63 2.18-2.09 3.97-1.47.32-1.56.7-1.99 2.06-1.13.15-2.26.31-3.39.46-.31 1.09-.62 2.17-.93 3.25-1.67.24-5.03 2.88-5.43 4.28-.6.16-1.2.32-1.8.49-.48 1.51-2.62 3.1-3.95 3.89-.21 1.81-.42 3.61-.62 5.42-1.51.78-1.19 2.8-1.68 4.33-1.43.44-1.49.58-2.05 1.91l-9.39.39c-.68.68-1.37 1.35-2.05 2.03-.28 1.8-.55 3.61-.83 5.41l-5.06 1.08c-.19 1.51-.77 2.82-2.16 3.3-.13.58-.27 1.17-.4 1.76l-1.62.72c-.7 1.08-1.4 2.17-2.1 3.25l-4.44.72-1.55 1.64-.36 1.92c-1.24 1.05-1.84 1.87-2.11 3.66-1.56.38-1.52.71-1.97 2.16-1.55.39-1.41.8-1.95 2.17-.64.5-1.27 1-1.91 1.51-2.41.27-4.81.55-7.22.83-.24.49-.48.99-.72 1.48-.6.17-1.2.33-1.81.49-.3 1.4-.36 1.75-1.76 2.19-.18 3.81-2.48 7.05-6.18 7.84-.4 1.82-1.86 1.95-3.6 2.2-.28 1.69-3.23 8.95-4.38 9.45-.17.6-.35 1.2-.52 1.8-1.46.27-1.88.41-2.32 1.84-.97.16-1.93.33-2.89.49l-.72 1.68c-.6.16-1.21.33-1.81.49-.52.54-1.03 1.09-1.55 1.64-.15.6-.31 1.2-.46 1.8-1.85.21-3.71.43-5.57.64-.29 1.47-.64 1.59-2.08 1.89-.59 1.87-2.24 3.42-4.05 4.1l-.36 5.64c-1.2.78-2.41 1.55-3.61 2.32l-.45 5.26c-2.38-.11-4.75-.23-7.13-.34-.75 1.14-.56 2.86-1.45 3.83-1.29 1.39-3.02.44-3.6 2.55-1.69.33-3.37.67-5.06 1-.15.9-.8 1.48-.91 2.35-.2 1.55.35 3.14.1 4.69l-5.38.36c-.22.71-.44 1.43-.66 2.15l-3.86 3.62-3.4.72c.01 2.1.59 2.63 1.1 4.34-1.68.58-3.35 1.16-5.03 1.74-.3 1.33-1 1.27-2.22 1.5-.59 1.32-.44 1.77-1.97 2.17-.83 1.8-1.65 3.61-2.48 5.41-.52.24-1.05.48-1.57.72-.26.97-.51 1.93-.76 2.89l-2.19 2.25c-1.61.33-3.22.67-4.82 1-.3 1.93-.6 3.85-.89 5.78-1.44.45-1.81 1.91-2.23 3.35-2.54.23-4.27.29-5.78 2.1-1.32.22-2.64.44-3.97.66-1.12 1.21-2.25 2.42-3.37 3.63l-.6 3.61c-1.31.22-3.91 0-4.98.93-1 .87-.7 1.32-2.32 1.6-.44 1.6-.54 3.02-2.08 3.7-.39 1.39-.17 2.5-1.82 2.79-.22 1.08-.43 2.17-.65 3.25-1.24 1.13-1.89 1.83-2.22 3.7l-3.32.63c-1.39 2.18-3.64 1.39-6.07 1.94-.5 1.44-.58 1.55-2.04 2.03-.34 1.27-.25 1.87-1.65 2.17-.31 2.52-.61 5.05-.92 7.58-1.72.52-1.5 2.3-1.88 3.93-1.39.36-1.68.42-2.17 1.8-2.52.25-5.04.51-7.57.76.07 1.81.13 3.61.2 5.42.65.6 1.3 1.2 1.96 1.8h7.54c.69-1.61 1.91-1.8 3.65-2.09.56-2 2.21-1.38 2.88-3.41 1.46-.29 1.84-.35 2.17-1.83 2.09-.27 2.83-.58 3.97-2.09 2.5-.19 6.31-.99 7.61 1.48l7.55.12c.24-.54.48-1.07.72-1.61 1.08-.14 2.17-.28 3.25-.43l.72-1.5c2.03-.31 4.91-.06 5.8-1.99 2.1-.35 8.04-1.48 8.64 1.14.96.1 1.92.19 2.88.28.73-.72 1.45-1.43 2.18-2.14.24-1.26.47-2.52.71-3.78 1.2.14 2.41.28 3.61.43 1.86 2.2 4.69 1.68 7.58 1.53.36-.48.72-.97 1.08-1.45 1.21-.23 2.41-.46 3.61-.69.72-1.54 2.01-1.48 3.66-1.82 2.15-1.19 4.3-2.39 6.45-3.58 3.97-.25 7.94-.49 11.91-.74.31-1.83 3.65-1.66 5.24-1.82.27-.48.54-.96.8-1.44 2.08-.17 5.11.16 5.87-1.9 6.49-.18 12.99-.37 19.49-.55.24-1.21.48-2.42.72-3.62 1.41.02 1.72.12 2.17 1.42.96.05 1.92.09 2.88.13.84-1.16 1.69-2.32 2.53-3.48l3.78.06.66 3.25c.68.73 1.37 1.47 2.06 2.2 1.54-.09 1.84-1.86 2-3.28 1.21-.24 1.79-.54 1.97-1.82h2.88c.5 2.04 6.89 1.39 8.57 1.09 1.11-1.13 2.23-2.27 3.34-3.41 1.07 1.55 2.15 2.32 4.33 2.09.43-1.05.21-2.82.91-3.7.82-1.02 1.31-1.18 1.94-2.55l5.09.09c.43 1.43.71 1.57 2.17 1.83.24.59.48 1.17.72 1.75 1.74.02 3.81-1.46 3.97-3.34 3.04-.46 12.71.26 13.72-2.19l13.35-.45c.23-.55.46-1.11.68-1.66l23.5-.57c.43-1.65 1.11-1.37 2.53-1.94.65-1.5 2-1.6 3.61-1.91.24-.52.48-1.04.72-1.55 1.73-.1 5.69-.07 7.14-.86.96-.52 1.55-1.07 2.97-1.26 3.66-.48 7.04.68 10.1 1.25 2.39-.48 3.8-1.86 6.86-1.47.24.7.48 1.41.72 2.12 2.61-.11 5.21-.21 7.82-.31 1.33-2.53 5.3-1.58 7.82-1.93ZM49.27 47.41c.24.45.48.9.72 1.34 2.21.51 2.96.39 4.33 2.03 3.84.31 7.68.63 11.52.94v3.32c-2.27 2.54-6.04 1.69-9.36 1.5-.73-2.71-5.23-.66-6.54-3.3-1.07-.24-2.14-.47-3.2-.71-.45-1.85-2.67-1.79-4.33-2.05-.34-1.01-.67-2.01-1-3.02 1.72-1.85 5.56-.34 7.86-.05ZM75.9 85.06v7.52c-1.66.3-1.74.62-2.2 2.16-1.38.29-1.81.41-2.06 1.86-1.75.28-2.8.83-3.61 2.29-1.46.64-1.46.68-2.28 1.97H63.7c-.55-.59-1.09-1.19-1.64-1.79V93.3l5.97-.63c1.2-.88 2.4-1.75 3.6-2.62-1.78-1.32-3.56-2.65-5.34-3.97 1.17-2.25 7.37-1.24 9.61-1.02Zm6.57 5.48c1.15.92 2.31 1.84 3.46 2.76.19 1.45.3 1.93 1.82 2.16v5.45h-3.64c-.94-2.49-3.87-7.54-1.64-10.37Zm279.47 98.98v4.97c-.4-.04-.8-.07-1.2-.1v-4.79c.4-.03.8-.06 1.2-.08Zm-240.23 13.51v7.68h-3.69v-7.68zm240.23-.17V223c-.52-.08-1.04-.17-1.56-.25-.91-5.02.12-10.02-.47-15.04-.25-2.07-1.82-2.37-1.7-4.32 1.24-.18 2.49-.35 3.73-.53Zm-346.6 12.36c.35 1.1.69 2.21 1.04 3.32 1.72.29 2.1.99 1.54 2.62h-5.86c-.29-1.96-.52-1.6-1.84-2.62v-3.32zm307.86 20c.45.81.9 1.63 1.35 2.44l-.63 3c-1.34.16-1.88.2-2.16-1.22-2.5.61-4.99 1.22-7.48 1.83-.28.54-.55 1.07-.82 1.6h-3.53c-.54-2.24.16-3.33.64-5.37l5.05-.78.72-1.5zm-89.52 44.01v5.5h-3.57v-5.5zM126 389.19v7.57h-3.72v-7.57zm74.26 5.91v3.82h-4.32v-3.82zm141.35.52c.61.64 1.22 1.29 1.83 1.93-.46 2.25-3.61 1.24-5.25 1.84-.88.31-.6.9-1.63 1.09-.62-.98-1.24-1.95-1.85-2.93 2.63-.46 4.14-2.21 6.9-1.93Zm-133.48 1.55v3.66h-2.49v-3.66zm31.85-.22v4.14h-4.24v-4.14zm-84.25 10.28v3.31c-1.46.4-1.71.7-2.03 2.17l-3.21.72c-.58 3.28-.11 6.08.19 9.4h-2.72v-3.87h-5.94v-5.89c1.49-.2 1.71-.38 2.17-1.8 1.32-.77 2.64-1.55 3.97-2.33h3.24c.25-.57.49-1.14.73-1.71zm-29.81 5.94v3.86h-5.88v-3.86zm65.55 1.39c.95 1.28.65 3.05-.36 4.07-.88-1.01-1.75-2.02-2.62-3.03.99-.35 1.98-.7 2.98-1.04Zm-17.27 1.82c1.2.3 2.4.59 3.6.89v1.46c-1.2.26-2.4.53-3.6.79zm39.8.94h3.61v5.4H214zm-206.24 1.8v3.69c-2.47 1.64-2 2.97-5.67 2.17v-5.86zm126.68-.1h3.49v3.79c-.56.24-1.12.48-1.68.71-.49 2.3-.97 4.6-1.46 6.89v-2.9c-2.18-.62-7.72.37-8.84-1.45 1.27-.48 2.54-.96 3.82-1.44.21-1.48 2.46-3.45 3.95-3.74zM184 421.1v6.05c-3.07.23-3.41-2.94-3.39-5.42zm-105.92 1.76v1.76c-1.55.64-3.09 1.28-4.63 1.93-1.51-.39-1.54-2.27-1.26-3.69zm88.25 9.1h-12.21c-.06-2.22-.13-4.43-.19-6.65l3.61.39c.21 1.08.41 2.17.62 3.25.67.6 1.35 1.2 2.02 1.8 1.64.23 5.31-.39 6.15 1.21Zm173.63 0h-20.15c.17-1.5.34-3.01.5-4.51 1.69-.02 3.37-.03 5.06-.05.24.45.48.89.72 1.34 3.09.44 5.67.13 7.96 2.01 1.97.41 3.94.81 5.91 1.21Zm-232.46 0H96.37c-.09-.88-.17-1.77-.26-2.65l9.82-.15c.52.94 1.04 1.87 1.57 2.8Zm-39.6 0h-4.04c.19-.87.37-1.74.56-2.61 1.07.11 2.14.22 3.2.32.1.76.19 1.53.28 2.29Zm82.23 0H136.1c.17-.3.34-.61.51-.91 2.46 0 6.07.47 7.4-1.74h5.89c.08.88.16 1.77.23 2.65Zm211.81-2.78-.03 2.75-3.82.03c.04-.16.09-.32.14-.48 1.36-.49 1.76-.64 2.15-2.1.52-.06 1.04-.13 1.56-.2Zm-125.59 2.78h-2.78l1.93-1.51c.28.5.57 1.01.85 1.51Z"/></svg>